<svg xmlns="http://www.w3.org/2000/svg" enable-background="new 0 0 128 128" viewBox="0 0 128 128" id="humming-bird">
  <g id="Humming_Bird">
    <g>
      <path fill="#7a9bf5" d="M124,30.39c-9.31-2.35-21.72-3-30.99,0.09H93c-8.81,2.93-14.79,9.23-12.59,20.66
			c3.5,18.23-7.3,32.01-21.89,38.64c-0.63,0.29-1.27,0.57-1.92,0.83c0.32,1.01,0.9,2.15,1.7,3.34c2.81,4.22,8.28,9.17,14.1,11.91
			c-8.44,7.82-12.29,12.5-20.22,18.14c-18.52-22.33-16.83-43.18-11.55-57.75l6.09-14.99l6.48-15.95c1.18-2.92,2.73-5.79,4.57-8.47
			c3.83-5.58,20.31-28.03,40.3-7.18c0.14,0,0.28,0,0.43,0.01C108.74,19.78,119.68,25.42,124,30.39z"></path>
      <path fill="#f9c775" d="M124,30.39c-9.31-2.35-21.72-3-30.99,0.09c6.66-4.05,5.06-10.82,5.06-10.82l0.31,0.04l0.12-0.03
			C108.74,19.78,119.68,25.42,124,30.39z"></path>
      <path fill="#5c7de9" d="M42.468,77.073c-1.203,8.726-2.525,30.123,9.712,46.927c-18.52-22.33-16.83-43.18-11.55-57.75l6.09-14.99
			l12.9,5.6c0,0-4.845,11.115-13.521,15.188C44.112,72.981,42.767,74.898,42.468,77.073z"></path>
      <path fill="#5c7de9" d="M56.6,90.61c0.32,1.01,0.9,2.15,1.7,3.34c-2.96,0.71-5.98,0.87-8.84,0.56c-0.52-0.04-0.57-0.84-0.06-0.94
			C52.02,92.96,54.45,91.95,56.6,90.61z"></path>
      <path fill="#306189" d="M79.277,23.253c-0.024,0-0.049-0.001-0.074-0.002c-0.828-0.04-1.465-0.744-1.425-1.571
			c0.088-1.808,1.494-3.432,3.271-3.777c1.778-0.346,3.689,0.633,4.449,2.274c0.348,0.752,0.021,1.644-0.731,1.991
			s-1.644,0.021-1.991-0.731c-0.184-0.398-0.724-0.678-1.153-0.589c-0.43,0.083-0.826,0.541-0.848,0.979
			C80.735,22.629,80.072,23.253,79.277,23.253z"></path>
      <path fill="#f9c775" d="M58.28,89.89c5.64-10.72,4.68-37.48,21.74-41.66c0.06,0.93,0.2,1.9,0.39,2.91
			C83.93,69.47,72.99,83.3,58.28,89.89z"></path>
      <path fill="#f7972f" d="M22.733,22.438l17.96,6.175c5.494,1.771,9.538,4.107,12.506,6.703c1.186-2.929,2.736-5.789,4.579-8.472
			c-1.597-1.293-3.423-2.561-5.533-3.784L30.896,10.13l-9.73-5.894c-1.009-0.611-2.303,0.017-2.651,1.317
			C17.309,10.052,17.25,17.957,22.733,22.438z"></path>
      <path fill="#f9c775" d="M58.53,59.21c-2.98,5.23-7.85,7.01-9.06,7.42c-1.12,0.3-2.86,0.56-4.99,0.47c-1.36-0.06-2.65-0.38-3.86-0.85
			c-2.29-0.89-4.25-2.32-5.71-3.61c-1.7-1.5-2.71-2.8-2.71-2.8h0.01l0.1-0.01c-4.74-0.81-6.99-4.38-8.05-7.25
			c-0.77-2.1-0.91-3.83-0.91-3.83h0.06c-4.13-1.23-7.15-5.77-8.96-9.5c-0.96-1.94-1.58-3.67-1.86-4.58
			c-0.33-0.14-0.65-0.29-0.95-0.45C5.39,30.99,3.8,23.28,4.02,18.65c0.07-1.35,1.2-2.24,2.31-1.85l10.76,3.7l23.6,8.11
			c5.5,1.77,9.54,4.11,12.51,6.7h0.01c4.77,4.17,6.72,9.02,7.28,13.32C60.7,50,61.2,54.53,58.53,59.21z"></path>
      <path fill="#f7972f" d="M31.41 40c-.03.26-.25.46-.51.46-3.38.06-6.77-.03-10.17-.33-2.15-.22-4.22-.43-6.28-.88-.96-1.94-1.58-3.67-1.86-4.58 5.55 2.87 12.19 3.81 18.37 4.75C31.24 39.46 31.44 39.72 31.41 40zM34.62 51c-.03.28-.24.49-.5.53-3.23.53-6.55.94-9.86 1.05-.77-2.1-.91-3.83-.91-3.83 3.54.85 7.09 1.31 10.74 1.61C34.41 50.39 34.65 50.68 34.62 51zM38.05 60.94c0 .3-.18.55-.44.67-.9.39-1.8.72-2.7 1.03-1.7-1.5-2.71-2.8-2.71-2.8h.01c1.72.19 3.44.36 5.11.36C37.72 60.2 38.05 60.53 38.05 60.94z"></path>
    </g>
    <g>
      <path fill="#303355" d="M124.754 29.737c-4.597-5.283-15.878-10.958-26.263-11.078-6.117-6.262-12.515-9.158-19.006-8.642-7.532.613-15.286 6.075-21.923 15.393-1.481-1.135-3.09-2.216-4.8-3.208L21.684 3.38c-.711-.432-1.564-.5-2.341-.186-.864.347-1.535 1.132-1.794 2.099-.402 1.502-1.229 5.478-.211 9.93.124.539.663.878 1.198.752.539-.123.875-.659.752-1.197-.637-2.786-.565-6.139.192-8.967.097-.362.325-.646.608-.761.197-.079.384-.064.559.041l31.095 18.833c1.684.976 3.253 2.033 4.69 3.142-1.402 2.131-2.614 4.355-3.622 6.64-3.16-2.499-7.119-4.532-11.793-6.038L6.658 15.854c-.786-.271-1.634-.156-2.328.313-.771.522-1.261 1.432-1.309 2.432C2.793 23.312 4.4 32.054 11.775 35.412c.745 2.19 4.269 11.587 10.663 14.063.354 2.257 2.054 9.684 9.181 11.238.838 1.012 4.078 4.661 8.548 6.429.031.017.063.031.096.044 1.396.541 2.799.849 4.169.913.297.014.595.021.892.021 1.475 0 2.942-.172 4.374-.513.537-.128.869-.667.741-1.204-.128-.538-.665-.87-1.205-.741-1.537.366-3.122.517-4.708.439-1.124-.053-2.283-.303-3.447-.744-.029-.016-.06-.028-.091-.041-2.946-1.142-5.357-3.269-6.737-4.682 2.009-.217 3.396-.424 4.362-.651.538-.126.872-.663.746-1.201-.125-.538-.668-.868-1.201-.746-1.437.336-3.829.592-5.795.78-5.667-1.044-7.36-6.484-7.837-8.947 2.271.217 4.114.291 5.989.291 1.374 0 2.766-.039 4.361-.09.552-.017.985-.479.968-1.03-.018-.553-.48-1.028-1.031-.968-4.03.126-6.743.18-11.19-.306-4.379-1.364-7.669-7.142-9.324-11.284 4.771 1.68 12.296 2.611 17.904 2.908.018.001.036.001.054.001.528 0 .969-.414.998-.947.029-.552-.394-1.022-.946-1.052-6.861-.363-15.477-1.617-19.258-3.6-.011-.006-.023-.005-.034-.01-.017-.008-.028-.025-.046-.032-6.715-2.784-8.157-10.773-7.95-15.056.018-.374.18-.7.433-.871.174-.119.362-.146.556-.079l34.379 11.82c4.958 1.598 9.048 3.786 12.154 6.503.038.033.078.063.12.09 3.898 3.449 6.2 7.688 6.842 12.6.072.549.581.935 1.122.861.547-.071.933-.573.862-1.121-.673-5.144-3.13-9.767-7.086-13.436 1.122-2.647 2.525-5.222 4.197-7.656 6.421-9.345 13.897-14.812 21.051-15.394 5.98-.489 11.928 2.319 17.697 8.338.188.196.449.308.722.308.028-.001.062 0 .093 0 8.319 0 17.275 3.793 22.515 7.973-12.801-2.473-28.709-1.697-36.684 5.827-4.387 4.141-5.923 9.817-4.566 16.875 1.317 6.852.627 13.331-2.048 19.257-.228.503-.004 1.095.5 1.322C78.009 71.972 78.148 72 78.286 72c.381 0 .745-.219.912-.589 2.849-6.309 3.586-13.191 2.189-20.456-1.219-6.342.119-11.403 3.976-15.043 7.822-7.384 25.235-7.877 38.392-4.549.424.108.868-.073 1.097-.446C125.081 30.545 125.042 30.067 124.754 29.737zM74.645 75.436c-.453.661-.935 1.315-1.434 1.942-.344.433-.272 1.062.161 1.405C73.556 78.929 73.775 79 73.994 79c.294 0 .586-.13.783-.378.528-.664 1.039-1.356 1.519-2.058.312-.455.195-1.078-.26-1.39C75.578 74.863 74.957 74.979 74.645 75.436zM72.822 104.957c-6.879-3.242-13.084-9.594-14.939-13.792 4.849-2.069 9.148-4.809 12.792-8.151.407-.374.435-1.006.061-1.413-.373-.407-1.005-.435-1.413-.062-3.692 3.387-8.098 6.128-13.095 8.147-.005.002-.008.006-.012.008-.004.002-.009.001-.013.003-2.678 1.169-5.342 1.803-8.384 1.995-.551.035-.97.51-.935 1.062.034.529.474.937.997.937.021 0 .042-.001.064-.002 2.913-.184 5.507-.772 8.08-1.781 2.058 4.765 8.308 10.833 14.636 14.202-2.145 2.012-4.01 3.829-5.682 5.46-4.23 4.126-7.614 7.426-12.627 11.07-13.094-16.152-17.219-33.452-12.259-51.434.147-.532-.166-1.083-.698-1.229-.535-.147-1.083.166-1.23.698-5.218 18.916-.764 37.072 13.239 53.963.197.237.482.361.771.361.201 0 .404-.061.579-.185 5.564-3.954 9.121-7.422 13.623-11.812 1.932-1.884 4.121-4.02 6.699-6.407.244-.226.359-.558.309-.886C73.333 105.38 73.123 105.099 72.822 104.957z"></path>
    </g>
  </g>
</svg>
