<svg xmlns="http://www.w3.org/2000/svg" xml:space="preserve" style="enable-background:new 0 0 512 512" viewBox="0 0 512 512" id="eagle">
  <g id="_x33_3_x2C__eagle_x2C__bird_x2C__Bald_Eagle_x2C__animals_x2C__wildlife_x2C__ornithology">
    <g>
      <g>
        <path d="M110.894,506.016c42.625-67.363,38.429-170.842,32.83-223.082
				c-1.823-16.966,3.265-34.062,14.402-47.012c15.434-17.917,14.993-40.001,14.993-40.001s-19.199,4.226-54.343-23.486l0-0.01
				c-36.702-21.78-64.559-57.358-34.042-99.513c16.806-21.954,130.911-91.65,209.751-57.688
				c63.337,27.282,152.193,7.592,152.193,7.592c-13.33,59.932-84.67,61.825-84.67,61.825s90.358,10.486,115.076,105.592
				l-58.98-4.807c71.069,76.477,75.165,200.738,75.165,200.738l-66.973-34.793c-21.643,80.013-91.861,109.948-91.861,109.948V417.22
				h-0.01c-27.081,51.549-82.757,79.281-82.757,79.281l5.719-51.359c-22.214,24.367-45.43,39.33-66.642,48.424h-0.01l-3.776-41.644
				C156.805,497.442,110.894,506.016,110.894,506.016z" style="fill:#9dcafc"></path>
        <path d="M108.15 68.846c9.014-1.002 18.068 2.794 23.105 10.326 3.626 5.418 5.549 13.11 1.903 23.726 0 0 51.409-4.978 75.466 47.272L47.547 172.234c-7.441 7.792-13.381 17.447-17.226 29.355C30.374 201.489-25.451 83.69 108.15 68.846zM211.028 62.897l5.989-4.267c5.889-4.206 12.659-6.961 19.74-8.112 4.687 4.948 7.552 11.608 7.552 18.939 0 15.233-12.349 27.572-27.572 27.572-14.612 0-26.581-11.347-27.522-25.729C197.046 70.388 204.558 67.504 211.028 62.897z" style="fill:#fff"></path>
        <path d="M208.624,150.17v0.01l-2.864,4.487c-6.33,9.935-17.887,15.213-29.555,13.541
				c-32.786-4.665-61.985,2.441-84.069,16.585c-15.684,10.055-36.806,4.327-44.588-12.559
				C96.242,121.136,208.624,150.17,208.624,150.17z" style="fill:#9dcafc"></path>
        <path d="M487.206,313.282c-8.484-34.785-25.198-82.958-57.232-121.869l46.707,3.807
				c3.452,0.273,6.118-2.928,5.253-6.251c-13.52-52.02-49.057-87.338-95.22-103.28c32.299-8.577,57.484-28.641,64.853-61.788
				c0.798-3.585-2.417-6.768-5.97-5.976c-0.875,0.192-88.051,19.006-149.134-7.305c-44.227-19.052-96.186-6.257-131.99,7.834
				C126.638,33.342,92.968,55.51,81.888,68.476c-27.878,7.19-47.453,20.639-58.346,40.152c-22.867,40.967,1.215,92.91,2.251,95.101
				c1.932,4.087,7.901,3.711,9.293-0.603c2.714-8.413,6.635-15.881,11.725-22.418c11.194,14.865,32.193,18.453,48.024,8.306
				c5.295-3.389,13.025-7.571,23.002-10.966c24.159,18.5,41.269,22.424,49.923,22.999c-0.849,7.074-3.721,20.344-13.426,31.615
				c-11.889,13.818-17.573,32.336-15.591,50.805c5.796,54.024,9.336,154.428-32.078,219.871c-3.263,5.171,2.124,8.099,5.052,7.61
				c0.033-0.006,0.066-0.003,0.1-0.009c1.798-0.335,40.981-8.049,71.352-45.403l2.587,28.482c0.307,3.363,3.882,5.482,6.962,4.155
				c20.988-9.002,40.473-22.117,58.082-39.072l-4.103,36.846c-0.437,3.936,3.667,6.804,7.21,5.037
				c2.323-1.157,46.634-23.632,75.521-65.762v26.093c0,3.599,3.687,6.009,6.972,4.607c0.851-0.363,21.109-9.125,43.467-29.65
				c17.141-15.736,38.19-41.156,49.513-77.656l61.587,31.99c3.401,1.765,7.439-0.793,7.313-4.61
				C498.236,384.706,497.123,353.944,487.206,313.282z M30.483,187.96c-5.484-16.78-12.549-48.782,1.828-74.491
				c12.324-22.037,38.027-35.375,76.397-39.643c7.624-0.847,14.576,2.441,18.387,8.135c3.49,5.216,3.935,11.713,1.323,19.312
				c-1.188,3.457,1.611,6.961,5.218,6.612c0.45-0.046,41.762-3.531,65.464,35.056c-14.163-2.8-40.541-6.924-68.942-5.807
				c-38.146,1.496-67.096,12.125-85.633,31.118c-0.367,0.278-0.673,0.609-0.943,0.966C38.338,174.776,33.959,181.028,30.483,187.96z
				 M89.434,180.58c-12.045,7.721-28.204,4.426-35.725-7.486c16.703-15.865,42.331-24.568,76.643-25.946
				c29.619-1.188,57.637,3.708,70.159,6.323c-5.422,7.271-14.491,11.087-23.597,9.783c-23.822-3.393-43.73-0.497-59.173,4.306
				c-0.3,0.063-0.59,0.154-0.875,0.271C104.862,171.661,95.625,176.617,89.434,180.58z M432.13,348.758
				c1.105-4.467,2.065-9.082,2.853-13.854c0.45-2.729-1.397-5.306-4.125-5.757c-2.73-0.443-5.306,1.396-5.757,4.125
				c-7.675,46.476-32.365,77.51-51.727,95.361c-13.486,12.432-26.346,20.399-33.933,24.557v-34.727
				c2.981-5.812,5.622-11.915,7.803-18.318c0.892-2.617-0.507-5.462-3.125-6.354c-2.62-0.896-5.463,0.507-6.354,3.125
				c-16.31,47.869-61.344,79.142-80.033,90.414l4.635-41.632c0.24-2.157-0.936-4.222-2.912-5.116
				c-1.978-0.894-4.304-0.414-5.766,1.187c-17.519,19.211-37.209,34.083-58.6,44.315l-3.144-34.61
				c-0.193-2.117-1.7-3.882-3.762-4.402c-2.065-0.519-4.226,0.318-5.4,2.089c-19.503,29.439-46.144,42.853-61.204,48.425
				c11.601-21.696,19.133-46.204,23.82-71.224c0.755-0.699,0.373-0.402,7.41-10.276c20.538-29.043,30.816-64.653,28.939-100.27
				c-0.585-11.1-1.483-22.342-2.669-33.416c-1.69-15.722,3.132-31.472,13.229-43.212c1.804-2.097,1.565-5.259-0.531-7.063
				c-2.098-1.804-5.259-1.565-7.063,0.531c-11.894,13.83-17.578,32.35-15.594,50.811c1.167,10.895,2.051,21.956,2.626,32.875
				c1.624,30.834-6.475,61.656-22.887,87.627c5.666-45.782,3.123-90.967-0.16-121.571c-1.687-15.729,3.133-31.477,13.223-43.204
				c16.492-19.152,16.222-42.396,16.203-43.376c-0.066-3.287-3.038-5.456-5.999-4.808c-0.167,0.027-14.955,2.44-42.008-16.389
				c12.645-2.79,27.849-3.949,45.379-1.45c13.591,1.936,27.128-4.265,34.487-15.81c3.142-4.951,3.088-4.763,3.366-5.589
				c0.432-1.279,0.307-2.629-0.183-3.694c-13.174-28.617-34.307-40.748-49.717-45.884c-9.619-3.207-18.192-4.156-23.835-4.374
				c3.498-20.835-13.046-36.037-32.016-33.948c-2.292,0.255-4.536,0.547-6.746,0.864c14.449-11.145,38.861-25.778,67.286-36.964
				c34.052-13.399,83.268-25.655,124.359-7.956c53.606,23.091,123.573,13.644,147.19,9.457c-6.484,19.199-20.566,33.368-41.96,42.18
				c-18.455,7.601-35.685,8.176-35.852,8.181c-2.624,0.069-4.747,2.155-4.867,4.778c-0.119,2.622,1.809,4.893,4.417,5.201
				c0.219,0.026,22.194,2.756,46.736,16.713c30.666,17.44,51.546,43.767,62.142,78.325l-49.879-4.065
				c-5.51-5.817-11.279-11.232-17.181-16.107c-2.133-1.761-5.288-1.458-7.051,0.672c-1.761,2.133-1.46,5.289,0.672,7.051
				c42.272,34.907,67.428,89.551,80.553,143.23c6.649,27.198,9.274,50.261,10.271,62.187L432.13,348.758z" style="fill:#4269a7"></path>
        <path d="M249.313 69.46c0-5.211-1.229-10.258-3.543-14.79 2.046-.629 3.543-2.512 3.543-4.765 0-2.766-2.242-5.008-5.008-5.008-10.888 0-21.33 3.339-30.199 9.656l-5.983 4.262c-7.16 5.103-15.593 7.799-24.387 7.799h-5.616c-2.766 0-5.008 2.242-5.008 5.008 0 2.766 2.242 5.008 5.008 5.008 5.925-.013 4.75.024 6.819-.023 3.275 14.603 16.382 25.433 31.792 25.433C234.697 102.041 249.313 87.425 249.313 69.46zM194.96 75.409c5.313-1.168 10.408-3.166 15.136-5.951l2.852 3.285c.99 1.14 2.383 1.724 3.783 1.724 4.246 0 6.607-5.034 3.779-8.291l-2.085-2.402c.928-.55 6.676-5.54 16.387-7.782 2.898 3.872 4.485 8.56 4.485 13.467 0 12.443-10.123 22.566-22.566 22.566C206.409 92.025 197.581 85.013 194.96 75.409zM237.54 332.697c-2.24-1.617-5.372-1.116-6.992 1.126l-7.277 10.07-10.438-16.252c-1.494-2.327-4.59-3.003-6.92-1.507-2.327 1.494-3.002 4.592-1.507 6.92l14.407 22.434c1.91 2.973 6.211 3.079 8.272.227l11.58-16.025C240.286 337.447 239.782 334.317 237.54 332.697zM308.195 247.748l11.58-16.025c1.62-2.242 1.116-5.372-1.126-6.992-2.24-1.617-5.371-1.116-6.992 1.126l-7.278 10.07-10.437-16.252c-1.494-2.327-4.591-3.003-6.92-1.507-2.327 1.494-3.002 4.592-1.507 6.92l14.407 22.434C301.832 250.494 306.134 250.6 308.195 247.748zM250.534 268.384c-2.241-1.618-5.371-1.116-6.992 1.126l-7.277 10.07-10.438-16.253c-1.494-2.327-4.59-3.003-6.92-1.507-2.327 1.494-3.002 4.592-1.507 6.92l14.407 22.435c1.914 2.979 6.218 3.07 8.272.227l11.58-16.025C253.279 273.135 252.776 270.004 250.534 268.384zM398.165 247.166c-2.24-1.617-5.371-1.116-6.992 1.126l-7.277 10.07-10.438-16.253c-1.494-2.327-4.59-3.003-6.92-1.507-2.327 1.494-3.002 4.592-1.507 6.92l14.407 22.435c1.914 2.979 6.218 3.07 8.272.227l11.58-16.025C400.911 251.917 400.407 248.786 398.165 247.166zM333.976 303.013c-2.24-1.618-5.371-1.116-6.992 1.126l-7.277 10.07-10.438-16.252c-1.493-2.327-4.59-3.003-6.92-1.507-2.327 1.494-3.002 4.592-1.507 6.92l14.407 22.434c1.91 2.973 6.211 3.079 8.272.227l11.58-16.025C336.722 307.763 336.218 304.632 333.976 303.013zM292.662 382.816c-2.24-1.617-5.371-1.116-6.992 1.126l-7.277 10.07-10.438-16.253c-1.494-2.327-4.591-3.003-6.92-1.507-2.327 1.494-3.002 4.592-1.507 6.92l14.407 22.435c1.91 2.973 6.211 3.079 8.272.227l11.58-16.025C295.407 387.566 294.904 384.435 292.662 382.816zM100.722 97.19h8.546c2.766 0 5.008-2.242 5.008-5.008 0-2.766-2.242-5.008-5.008-5.008h-8.546c-2.766 0-5.008 2.242-5.008 5.008C95.715 94.948 97.956 97.19 100.722 97.19zM421.171 159.823c.933 1.585 2.605 2.468 4.32 2.468 3.837 0 6.284-4.197 4.31-7.55-28.152-47.81-76.314-49.106-78.351-49.138-2.595-.096-5.029 2.049-5.08 4.918-.049 2.761 2.152 5.041 4.913 5.096C353.096 115.652 395.95 116.99 421.171 159.823z" style="fill:#4269a7"></path>
      </g>
    </g>
  </g>
</svg>
