<svg xmlns="http://www.w3.org/2000/svg" xml:space="preserve" width="512" height="512" id="flying-dragon">
  <linearGradient id="a" x1="321.351" x2="370.084" y1="251.246" y2="325.507" gradientUnits="userSpaceOnUse">
    <stop offset="0" stop-color="#C5C391"></stop>
    <stop offset="1" stop-color="#DEE0B1"></stop>
  </linearGradient>
  <path fill="url(#a)" d="M324.544 210.734s29.704 11.401 49.443 28.459c2.853 2.466 3.648 6.681 1.763 9.947-3.202 5.546-5.714 14.987 6.078 23.667 0 0 26.646 18.179 39.916 38.533 2.387 3.66 1.078 8.42-2.512 10.908-3.383 2.346-6.451 6.857-5.188 15.519 2.526 17.323 6.662 77.23-32.217 98.522 0 0 36.908-107.184-55.479-167.452l-1.804-58.103z"></path>
  <linearGradient id="b" x1="135.986" x2="98.856" y1="195.165" y2="120.13" gradientUnits="userSpaceOnUse">
    <stop offset="0" stop-color="#C5C391"></stop>
    <stop offset="1" stop-color="#DEE0B1"></stop>
  </linearGradient>
  <path fill="url(#b)" d="M17.997 30.581c33.351 3.539 97.708 18.406 132.653 79.434a18.222 18.222 0 0 1 1.579 14.451c-5.216 16.806-15.774 59.729 2.387 86.268l-9.188 8.299s-16.678-15.325-40.05-20.018c-4.446-.893-7.293-5.23-6.186-9.628 3.449-13.685 2.939-40.677-47.081-54.773-3.652-1.029-6.089-4.5-5.728-8.277 1.56-16.302 1.937-59.257-32.356-86.173-4.214-3.309-1.36-10.149 3.97-9.583z"></path>
  <linearGradient id="c" x1="228.173" x2="231.267" y1="161.142" y2="65.995" gradientUnits="userSpaceOnUse">
    <stop offset="0" stop-color="#C5C391"></stop>
    <stop offset="1" stop-color="#DEE0B1"></stop>
  </linearGradient>
  <path fill="url(#c)" d="M252.324 6.935c-21.641 14.923-60.39 49.255-61.604 104.362a14.287 14.287 0 0 0 4.323 10.542c9.884 9.62 33.224 35.224 30.655 60.297l9.434 2.275s5.746-16.797 20.083-28.779c2.728-2.279 3.063-6.332.654-8.945-7.498-8.132-17.253-26.909 11.912-55.343 2.13-2.076 2.509-5.378.846-7.844-7.178-10.641-23.519-40.079-9.982-71.451 1.664-3.857-2.863-7.499-6.321-5.114z"></path>
  <linearGradient id="d" x1="269.664" x2="269.664" y1="98.088" y2="726.07" gradientUnits="userSpaceOnUse">
    <stop offset="0" stop-color="#FF88C5"></stop>
    <stop offset="1" stop-color="#D569A2"></stop>
  </linearGradient>
  <path fill="url(#d)" d="M464.86 149.042c-6.526-40.015-31.68-60.583-55.81-71.115-34.781-15.182-75.063-12.724-107.831 6.42-44.976 26.276-60.184 73.542-63.927 88.143a5.88 5.88 0 0 1-5.716 4.417c-87.281 0-158.036 70.755-158.036 158.035v3.71c0 61.465 49.828 111.293 111.293 111.293h47.238c57.23 0 103.626-46.395 103.626-103.626v-172.98c0-15.786 12.797-28.583 28.583-28.583h1.936c8.551 0 15.482 6.932 15.482 15.482v30.092c0 3.156 1.509 6.089 4.033 7.983 7.103 5.33 21.259 19.51 22.995 48.74.201 3.373 2.974 6.027 6.353 6.027h17.326c3.378 0 6.151-2.655 6.352-6.027 1.737-29.232 15.896-43.413 22.998-48.741 2.523-1.894 4.031-4.827 4.031-7.982v-35.681c0-1.964-.38-3.822-.926-5.607z"></path>
  <path fill="#CE629D" d="M335.697 173.339c0-4.265.959-8.296 2.633-11.931l-55.389 13.872s-41.686 132.058-129.006 133.222c0 0-55.135 5.197-52.15-63.683-17.787 25.567-28.245 56.616-28.245 90.123v3.71c0 61.465 49.828 111.293 111.293 111.293h47.238c57.23 0 103.626-46.395 103.626-103.626v-172.98z"></path>
  <path fill="#EACFE8" d="M342.55 128.411s-59.58 0-61.76 63.633v137.469c0 14.449-3.767 28.668-11.164 41.08-16.566 27.795-54.735 69.229-134.523 67.619 14.97 7.492 31.851 11.732 49.73 11.732h47.238c57.23 0 103.626-46.395 103.626-103.626v-172.98c0-15.786 12.797-28.583 28.583-28.583h1.936c8.551 0 15.482 6.932 15.482 15.482v3.809c0 .001 4.482-35.635-39.148-35.635z"></path>
  <path fill="#BF9DBA" d="M364.28 144.756h1.936c8.551 0 15.482 6.932 15.482 15.482v3.809s4.481-35.636-39.148-35.636c0 0-59.58 0-61.76 63.633v16.364c10.688-29.113 27.994-29.14 27.994-29.14 15.941-.726 23.488 8.735 26.913 15.96v-21.89c0-15.785 12.797-28.582 28.583-28.582zM335.697 346.319v-38.042c-1.689 7.002-4.338 15.501-8.401 23.024-9.336 17.287-32.988 20.388-45.635 5.352-.368-.438-.718-.946-1.079-1.415-.863 12.459-4.538 24.588-10.956 35.355-16.566 27.795-54.735 69.229-134.523 67.619 14.97 7.492 31.851 11.732 49.73 11.732h47.238c57.231.001 103.626-46.393 103.626-103.625z"></path>
  <path fill="#CE629D" d="M465.786 179.862s13.728 3.02 23.731-10.332c2.334-3.115 3.612-6.892 4.057-10.76.532-4.626 1.966-11.904 5.83-17.524 1.61-2.343-.256-5.423-3.067-4.999-8.353 1.26-21.148 5.534-30.551 19.31v24.305zM381.828 179.862s-13.728 3.02-23.73-10.332c-2.335-3.115-3.613-6.892-4.058-10.76-.532-4.626-1.966-11.904-5.83-17.524-1.61-2.343.256-5.423 3.067-4.999 8.353 1.26 21.148 5.534 30.551 19.31v24.305z"></path>
  <path fill="#E3F3FF" d="M382.644 158.182c-6.455 0-11.688-5.232-11.688-11.688V131.83c0-3.863-.788-7.679-2.402-11.189-1.673-3.637-4.502-8.313-9.275-13.5-1.385-1.505-2.319-3.345-2.595-5.372-.969-7.133-2.163-24.674 6.707-38.091 1.927-2.913 6.495-1.453 6.505 2.04.005 1.565.038 3.268.115 5.066.595 13.896 5.961 27.027 14.307 38.154 5.032 6.71 10.925 18.852 9.989 38.334-.295 6.145-5.511 10.91-11.663 10.91z"></path>
  <linearGradient id="e" x1="115.969" x2="566.621" y1="420.617" y2="334.584" gradientUnits="userSpaceOnUse">
    <stop offset="0" stop-color="#FF88C5"></stop>
    <stop offset="1" stop-color="#D569A2"></stop>
  </linearGradient>
  <path fill="url(#e)" d="M335.697 262.334v82.894c0 13.085-2.414 26.126-7.707 38.093-8.613 19.471-26.718 41.756-64.584 43.47 0 0-35.289 1.534-61.732-7.134-14.933-4.896-30.351-8.338-46.061-8.725-25.805-.637-59.537 5.247-85.8 33.322-5.523 5.904-.778 15.45 7.24 14.416 19.425-2.505 48.45-3.425 70.609 8.054 2.138 1.108 4.133 2.46 6.11 3.835 12.23 8.511 65.512 42.418 127.018 33.908 0 0 87.146-2.676 113.917-82.992 9.279-27.84 8.76-58.181-.853-85.907-8.465-24.418-25.208-54.658-58.157-73.234z"></path>
  <path fill="#CE629D" d="M393.854 335.567c-8.465-24.417-25.208-54.657-58.157-73.233v82.894c0 13.085-2.414 26.126-7.707 38.093-.269.607-.576 1.224-.863 1.837-8.742 87.216-70.617 109.384-110.51 114.514 19.063 5.194 41.034 7.997 64.173 4.796 0 0 87.146-2.676 113.917-82.992 9.279-27.841 8.76-58.182-.853-85.909zM464.86 149.042c-.323-1.979-.726-3.874-1.138-5.759-2.917 19.858-14.296 23.931-21.566 30.437-5.527 4.947-10.619 11.914-10.615 19.483.484 3.616 1.759 7.049 3.603 10.197 3.056 5.217 6.028 14.727 5.164 31.681 4.268-21.317 15.494-32.325 21.526-36.827a9.853 9.853 0 0 0 3.952-7.923V154.65c0-1.965-.38-3.823-.926-5.608z"></path>
  <path fill="#FFF" d="M398.829 175.032c.135 3.036.695 7.08 2.458 10.687 1.725 3.527 5.069 5.991 8.823 7.14l2.44.747c2.513.77 4.696-1.858 3.487-4.191-2.337-4.512-6.479-10.815-13.274-16.285-1.602-1.29-4.025-.152-3.934 1.902zM450.932 175.032c-.135 3.036-.696 7.08-2.459 10.687-1.724 3.527-5.068 5.991-8.822 7.14l-2.44.747c-2.513.77-4.696-1.858-3.487-4.191 2.337-4.512 6.479-10.815 13.274-16.285 1.602-1.29 4.024-.152 3.934 1.902z"></path>
  <path fill="#E3F3FF" d="M464.728 158.182c6.454 0 11.687-5.232 11.687-11.688V131.83c0-3.863.788-7.679 2.403-11.189 1.673-3.637 4.501-8.313 9.274-13.5 1.385-1.505 2.32-3.345 2.595-5.372.969-7.133 2.164-24.674-6.707-38.091-1.926-2.913-6.494-1.453-6.505 2.04a126.214 126.214 0 0 1-.114 5.066c-.595 13.896-5.962 27.027-14.307 38.154-5.032 6.71-10.925 18.852-9.989 38.334.294 6.145 5.509 10.91 11.663 10.91z"></path>
</svg>
