<svg width="112" height="50" viewBox="0 0 112 50" fill="none" xmlns="http://www.w3.org/2000/svg">
<mask id="path-1-inside-1_1977_5626" fill="white">
<path fill-rule="evenodd" clip-rule="evenodd" d="M-4.71009e-06 50C6.73661 43.7874 10.9563 34.8865 10.9563 25C10.9563 15.1135 6.73661 6.21259 -5.4425e-06 0H91.9563C103.002 0 111.956 8.95431 111.956 20V30C111.956 41.0457 103.002 50 91.9563 50H-4.71009e-06Z"/>
</mask>
<path fill-rule="evenodd" clip-rule="evenodd" d="M-4.71009e-06 50C6.73661 43.7874 10.9563 34.8865 10.9563 25C10.9563 15.1135 6.73661 6.21259 -5.4425e-06 0H91.9563C103.002 0 111.956 8.95431 111.956 20V30C111.956 41.0457 103.002 50 91.9563 50H-4.71009e-06Z" fill="black" fill-opacity="0.15"/>
<path d="M-4.71009e-06 50L-1.35588 48.5298L-5.11883 52H-4.71009e-06V50ZM-5.4425e-06 0V-2H-5.11883L-1.35588 1.47024L-5.4425e-06 0ZM8.9563 25C8.9563 34.3049 4.98739 42.6799 -1.35588 48.5298L1.35587 51.4702C8.48582 44.8949 12.9563 35.468 12.9563 25H8.9563ZM-1.35588 1.47024C4.98739 7.32008 8.9563 15.6951 8.9563 25H12.9563C12.9563 14.532 8.48582 5.10509 1.35587 -1.47024L-1.35588 1.47024ZM-5.4425e-06 2H91.9563V-2H-5.4425e-06V2ZM91.9563 2C101.897 2 109.956 10.0589 109.956 20H113.956C113.956 7.84974 104.107 -2 91.9563 -2V2ZM109.956 20V30H113.956V20H109.956ZM109.956 30C109.956 39.9411 101.897 48 91.9563 48V52C104.107 52 113.956 42.1503 113.956 30H109.956ZM91.9563 48H-4.71009e-06V52H91.9563V48Z" fill="url(#paint0_linear_1977_5626)" mask="url(#path-1-inside-1_1977_5626)"/>
<defs>
<linearGradient id="paint0_linear_1977_5626" x1="55.9781" y1="0" x2="55.9781" y2="50" gradientUnits="userSpaceOnUse">
<stop stop-color="#007C7C"/>
<stop offset="1" stop-color="#102928"/>
</linearGradient>
</defs>
</svg>
